<svg width="847" height="808" viewBox="0 0 847 808" fill="none" xmlns="http://www.w3.org/2000/svg">
<path fill-rule="evenodd" clip-rule="evenodd" d="M492.528 195.648L445.877 168.723V754.82H601.557V808H239.939V754.82H392.722V348.012L263.509 273.39V91.1151L421.238 0L579.011 91.1151V273.39L492.528 323.316V195.648ZM315.817 565.282V383.022L157.909 291.892L0 383.022V565.282L131.323 641.032V754.811H44.8746L4.95131 808H184.539V473.127L231.153 500.1V614.147L315.817 565.282ZM838.032 565.282V383.022L680.102 291.892L522.26 383.022V565.282L653.572 641.032V808H846.281L806.419 754.811H706.765L706.631 466.038L753.315 493.011V614.147L838.032 565.282Z" fill="#870D0D"/>
</svg>
